<svg width="93" height="31" viewBox="0 0 93 31" fill="none" xmlns="http://www.w3.org/2000/svg">
<path d="M86.062 0.442882H79.7144C77.7953 0.442882 76.3192 1.03336 75.4334 2.95241L63.3287 30.5572H71.8906C71.8906 30.5572 73.3668 26.8667 73.662 25.981C74.5477 25.981 82.962 25.981 84.143 25.981C84.4382 27.0143 85.1763 30.4095 85.1763 30.4095H92.8525L86.062 0.442882ZM76.0239 19.781C76.762 18.0095 79.2715 11.3667 79.2715 11.3667C79.2715 11.5143 80.0096 9.59526 80.3049 8.56193L80.8953 11.2191C80.8953 11.2191 82.5192 18.4524 82.8144 19.9286H76.0239V19.781Z" fill="#3362AB"/>
<path d="M63.9191 20.6667C63.9191 26.8667 58.3096 31 49.6 31C45.9096 31 42.3667 30.2619 40.4477 29.3762L41.6286 22.5857L42.6619 23.0286C45.3191 24.2095 47.0905 24.6524 50.3381 24.6524C52.7 24.6524 55.2096 23.7667 55.2096 21.7C55.2096 20.3714 54.1762 19.4857 50.9286 18.0095C47.8286 16.5333 43.6953 14.1714 43.6953 9.89048C43.6953 3.98571 49.4524 0 57.5715 0C60.6715 0 63.3286 0.590476 64.9524 1.32857L63.7715 7.82381L63.181 7.23333C61.7048 6.64286 59.7857 6.05238 56.981 6.05238C53.881 6.2 52.4048 7.52857 52.4048 8.70952C52.4048 10.0381 54.1762 11.0714 56.981 12.4C61.7048 14.6143 63.9191 17.1238 63.9191 20.6667Z" fill="#3362AB"/>
<path d="M28.9333 0.442809L16.0905 30.4095H7.38095L0 5.31424C5.31429 8.70947 9.74286 14.0238 11.3667 17.7142L12.2524 20.8142L20.2238 0.29519H28.9333V0.442809Z" fill="#3362AB"/>
<path d="M32.3286 0.29519H40.4477L35.281 30.4095H27.162L32.3286 0.29519Z" fill="#3362AB"/>
</svg>
